<?xml version="1.0" encoding="UTF-8" standalone="no" ?>
<!DOCTYPE svg PUBLIC "-//W3C//DTD SVG 1.1//EN" "http://www.w3.org/Graphics/SVG/1.1/DTD/svg11.dtd">
<svg xmlns="http://www.w3.org/2000/svg" xmlns:xlink="http://www.w3.org/1999/xlink" version="1.1" width="780" height="140" viewBox="0 0 780 140" xml:space="preserve">
<desc>Created with Fabric.js 4.4.0</desc>
<defs>
</defs>
<g transform="matrix(1 0 0 1 640 512)" id="background-logo"  >
<rect style="stroke: none; stroke-width: 0; stroke-dasharray: none; stroke-linecap: butt; stroke-dashoffset: 0; stroke-linejoin: miter; stroke-miterlimit: 4; fill: rgb(255,255,255); fill-opacity: 0; fill-rule: nonzero; opacity: 1;"  paint-order="stroke"  x="-640" y="-512" rx="0" ry="0" width="780" height="140" />
</g>
<g transform="matrix(0.4023505356322348 0 0 0.4023505356322348 89.83856093783743 66.90046433577533)" id="logo-logo"  >
<g style=""  paint-order="stroke"   >
		<g transform="matrix(0.2662019664356148 0 0 -0.2662019664356147 -42.134846550378825 39.29180954884643)"  >
<path style="stroke: none; stroke-width: 1; stroke-dasharray: none; stroke-linecap: butt; stroke-dashoffset: 0; stroke-linejoin: miter; stroke-miterlimit: 4; fill: rgb(55,69,95); fill-rule: nonzero; opacity: 1;"  paint-order="stroke"  transform=" translate(-534.1134999999999, -359.8085)" d="M 330.711 226.574 L 330.711 152.086 L 737.516 152.086 L 737.516 567.531 L 632.156 567.531 L 491.676 286.57 L 654.105 286.57 L 654.105 226.574 L 330.711 226.574" stroke-linecap="round" />
</g>
		<g transform="matrix(0.2662019664356148 0 0 -0.2662019664356147 -54.600152931676064 59.53460568250989)"  >
<path style="stroke: none; stroke-width: 1; stroke-dasharray: none; stroke-linecap: butt; stroke-dashoffset: 0; stroke-linejoin: miter; stroke-miterlimit: 4; fill: rgb(55,69,95); fill-rule: nonzero; opacity: 1;"  paint-order="stroke"  transform=" translate(-487.287, -283.7655)" d="M 861.285 226.574 L 820.9259999999999 226.574 L 820.9259999999999 152.086 L 859.0859999999999 152.086 C 878.4219999999999 152.086 896.3909999999998 138.93 899.5429999999999 119.85500000000002 C 903.5469999999999 95.58590000000001 884.8239999999998 74.49220000000003 861.2849999999999 74.49220000000003 L 115.488 74.49220000000003 C 96.1523 74.49220000000003 78.1836 87.64840000000002 75.0313 106.72700000000003 C 71.0273 130.99600000000004 89.7461 152.08600000000004 113.285 152.08600000000004 L 247.301 152.08600000000004 L 247.301 286.57 L 409.73 286.57 L 269.254 567.531 L 163.891 567.531 L 163.891 226.574 L 113.285 226.574 C 50.7188 226.574 0 175.855 0 113.289 C 0 50.7227 50.7188 0 113.285 0 L 861.285 0 C 923.852 0 974.574 50.7227 974.574 113.289 C 974.574 175.85500000000002 923.852 226.574 861.285 226.574" stroke-linecap="round" />
</g>
		<g transform="matrix(0.2662019664356148 0 0 -0.2662019664356147 -64.33995047962236 11.392113153612144)"  >
<path style="stroke: none; stroke-width: 1; stroke-dasharray: none; stroke-linecap: butt; stroke-dashoffset: 0; stroke-linejoin: miter; stroke-miterlimit: 4; fill: rgb(55,69,95); fill-rule: nonzero; opacity: 1;"  paint-order="stroke"  transform=" translate(-450.69899999999996, -464.615)" d="M 450.703 361.699 L 553.617 567.531 L 347.781 567.531 Z" stroke-linecap="round" />
</g>
		<g transform="matrix(0.2662019664356148 0 0 -0.2662019664356147 88.83039829071572 -34.87708167024513)"  >
<path style="stroke: none; stroke-width: 1; stroke-dasharray: none; stroke-linecap: butt; stroke-dashoffset: 0; stroke-linejoin: miter; stroke-miterlimit: 4; fill: rgb(55,69,95); fill-rule: nonzero; opacity: 1;"  paint-order="stroke"  transform=" translate(-1026.0905, -638.4273705222449)" d="M 1182.44 596.734 L 1384.79 1014.82 L 856.043 967.992 L 667.391 637.77 L 807.754 637.77 L 807.754 445 L 812.145 439.246 L 939.941 765.078 L 1181.88 868.4879999999999 L 1043.0500000000002 500.54299999999995 C 1043.0500000000002 500.54299999999995 1050.1200000000001 418.46899999999994 916.1130000000002 355.289 L 841.0470000000001 346.633 C 841.0470000000001 346.633 1037.96 201.039 1176.7200000000003 291.852 C 1318.4500000000003 384.61299999999994 1268.3300000000002 525.406 1268.3300000000002 525.406 L 1182.44 596.7339999999999" stroke-linecap="round" />
</g>
		<g transform="matrix(0.2662019664356148 0 0 -0.2662019664356147 -102.5143772743553 -61.77496143203197)"  >
<path style="stroke: none; stroke-width: 1; stroke-dasharray: none; stroke-linecap: butt; stroke-dashoffset: 0; stroke-linejoin: miter; stroke-miterlimit: 4; fill: rgb(55,69,95); fill-rule: nonzero; opacity: 1;"  paint-order="stroke"  transform=" translate(-307.29499999999996, -739.4705)" d="M 358.516 851.414 L 163.891 851.414 L 163.891 627.527 L 254.617 627.527 L 254.617 770.9340000000001 L 280.441 770.9340000000001 L 339.48799999999994 627.527 L 450.69899999999996 627.527 L 358.51599999999996 851.414" stroke-linecap="round" />
</g>
</g>
</g>
<g transform="matrix(1.9211538461538462 0 0 1.9211538461538462 470.69199190461995 65.13496897820318)" id="text-logo-path-group"  >
<g style=""  paint-order="stroke"   >
		<g transform="matrix(1 0 0 1 0 0)" id="text-logo-path-0"  >
<path style="stroke: none; stroke-width: 0; stroke-dasharray: none; stroke-linecap: butt; stroke-dashoffset: 0; stroke-linejoin: miter; stroke-miterlimit: 4; fill: rgb(55,69,95); fill-rule: nonzero; opacity: 1;"  paint-order="stroke"  transform=" translate(-155.71507143181117, 16.625)" d="M 2.49 0 L 9.5 0 L 9.5 -12.79 L 11.74 -12.79 L 16.55 0 L 23.71 0 L 17.14 -17.5 L 22.66 -32.35 L 16.26 -32.35 L 11.21 -18.8 L 9.5 -18.8 L 9.5 -32.35 L 2.49 -32.35 Z M 25.83 -6.1 C 25.83 -1.71 27.91 0.49 32.03 0.49 L 33.08 0.49 L 33.18 0.49 C 35.25 0.49 36.79 -0.1 37.79 -1.25 L 37.79 0 L 43.87 0 L 43.87 -24.39 L 37.18 -24.39 L 37.18 -5.3 C 37.18 -4.79 36.74 -4.3 36.23 -4.3 L 33.5 -4.3 C 32.93 -4.3 32.54 -4.79 32.54 -5.3 L 32.54 -24.39 L 25.83 -24.39 Z M 48.41 -18.31 L 48.41 -6.1 C 48.41 -1.71 50.49 0.49 54.61 0.49 L 55.66 0.49 C 58.08 0.49 59.79 -0.27 60.82 -1.81 L 60.82 0 L 66.46 0 L 66.46 -32.35 L 59.77 -32.35 L 59.77 -23.71 C 58.72 -24.51 57.35 -24.9 55.66 -24.9 L 54.61 -24.9 C 50.49 -24.9 48.41 -22.71 48.41 -18.31 Z M 55.13 -5.3 L 55.13 -19.09 C 55.13 -19.65 55.57 -20.09 56.08 -20.09 L 58.81 -20.09 C 59.38 -20.09 59.77 -19.6 59.77 -19.09 L 59.77 -5.3 C 59.77 -4.79 59.33 -4.3 58.81 -4.3 L 56.08 -4.3 C 55.52 -4.3 55.13 -4.79 55.13 -5.3 Z M 69.19 -24.39 L 74.56 0 L 83.4 0 L 88.75 -24.39 L 82.25 -24.39 L 79 -5.44 L 75.71 -24.39 Z M 93.29 -27.47 C 94.02 -26.76 94.9 -26.39 95.9 -26.39 C 96.9 -26.39 97.75 -26.73 98.46 -27.44 C 99.17 -28.15 99.54 -29 99.54 -30.05 C 99.54 -31.08 99.17 -31.96 98.46 -32.67 C 97.75 -33.37 96.9 -33.74 95.9 -33.74 C 94.9 -33.74 94.02 -33.37 93.29 -32.67 C 92.55 -31.96 92.19 -31.08 92.19 -30.08 C 92.19 -29.05 92.55 -28.17 93.29 -27.47 Z M 92.53 0 L 99.22 0 L 99.22 -24.39 L 92.53 -24.39 Z M 103.91 -18.31 L 103.91 -6.1 C 103.91 -1.71 105.98 0.49 110.11 0.49 L 115.77 0.49 C 119.9 0.49 121.95 -1.71 121.95 -6.1 L 121.95 -9.59 L 115.26 -9.59 L 115.26 -5.3 C 115.26 -4.79 114.82 -4.3 114.31 -4.3 L 111.57 -4.3 C 111.01 -4.3 110.62 -4.79 110.62 -5.3 L 110.62 -19.09 C 110.62 -19.65 111.06 -20.09 111.57 -20.09 L 114.31 -20.09 C 114.87 -20.09 115.26 -19.6 115.26 -19.09 L 115.26 -14.79 L 121.95 -14.79 L 121.95 -18.31 C 121.97 -22.71 119.9 -24.9 115.77 -24.9 L 110.11 -24.9 C 105.98 -24.9 103.91 -22.71 103.91 -18.31 Z M 136.47 0 L 143.48 0 L 143.48 -12.7 L 149.12 -12.7 C 153.25 -12.72 155.32 -14.92 155.32 -19.31 L 155.32 -25.76 C 155.32 -30.15 153.25 -32.35 149.12 -32.35 L 136.47 -32.35 Z M 147.39 -17.5 L 143.48 -17.5 L 143.48 -27.54 L 147.39 -27.54 C 147.9 -27.54 148.34 -27.05 148.34 -26.54 L 148.34 -18.51 C 148.34 -17.99 147.9 -17.5 147.39 -17.5 Z M 158.57 0 L 165.28 0 L 165.28 -32.35 L 158.57 -32.35 Z M 169.75 -18.31 L 169.75 -6.1 C 169.75 -1.71 171.83 0.49 175.95 0.49 L 177 0.49 C 179.42 0.49 181.13 -0.27 182.15 -1.81 L 182.15 0 L 187.79 0 L 187.79 -24.39 L 182.15 -24.39 L 182.15 -22.61 C 181.1 -24.15 179.39 -24.9 177 -24.9 L 175.95 -24.9 C 171.83 -24.9 169.75 -22.71 169.75 -18.31 Z M 176.46 -5.3 L 176.46 -19.09 C 176.46 -19.65 176.9 -20.09 177.42 -20.09 L 180.15 -20.09 C 180.71 -20.09 181.1 -19.6 181.1 -19.09 L 181.1 -5.3 C 181.1 -4.79 180.66 -4.3 180.15 -4.3 L 177.42 -4.3 C 176.86 -4.3 176.46 -4.79 176.46 -5.3 Z M 192.33 0 L 199.05 0 L 199.05 -19.09 C 199.05 -19.65 199.49 -20.09 200 -20.09 L 202.73 -20.09 C 203.3 -20.09 203.69 -19.6 203.69 -19.09 L 203.69 0 L 210.38 0 L 210.38 -18.31 C 210.4 -22.71 208.33 -24.9 204.2 -24.9 L 203.15 -24.9 C 201.03 -24.9 199.46 -24.32 198.44 -23.14 L 198.44 -24.39 L 192.33 -24.39 Z M 214.92 -6.1 C 214.92 -1.71 216.99 0.49 221.12 0.49 L 225.83 0.49 L 225.83 -3.86 L 223.83 -3.86 C 222.36 -3.86 221.63 -4.39 221.63 -6.25 L 221.63 -19.56 L 225.83 -19.56 L 225.83 -24.39 L 221.63 -24.39 L 221.63 -29.71 L 214.92 -29.71 Z M 239.62 0 L 246.63 0 L 246.63 -12.7 L 252.17 -12.7 L 252.17 0 L 259.18 0 L 259.18 -32.35 L 252.17 -32.35 L 252.17 -18.8 L 246.63 -18.8 L 246.63 -32.35 L 239.62 -32.35 Z M 265.58 -27.47 C 266.31 -26.76 267.19 -26.39 268.19 -26.39 C 269.19 -26.39 270.04 -26.73 270.75 -27.44 C 271.46 -28.15 271.83 -29 271.83 -30.05 C 271.83 -31.08 271.46 -31.96 270.75 -32.67 C 270.04 -33.37 269.19 -33.74 268.19 -33.74 C 267.19 -33.74 266.31 -33.37 265.58 -32.67 C 264.84 -31.96 264.48 -31.08 264.48 -30.08 C 264.48 -29.05 264.84 -28.17 265.58 -27.47 Z M 264.82 0 L 271.51 0 L 271.51 -24.39 L 264.82 -24.39 Z M 276.2 0 L 282.91 0 L 282.91 -16.65 C 282.89 -17.82 283.45 -18.41 284.59 -18.41 L 287.89 -18.41 L 287.89 -24.9 L 286.6 -24.9 C 284.69 -24.9 283.25 -23.95 282.3 -22.05 L 282.3 -24.39 L 276.2 -24.39 Z M 290.89 -18.31 L 290.89 -6.1 C 290.89 -1.71 292.97 0.49 297.09 0.49 L 302.76 0.49 C 306.88 0.49 308.94 -1.71 308.94 -6.1 L 308.94 -8.01 L 302.25 -8.01 L 302.25 -5.3 C 302.25 -4.79 301.81 -4.3 301.29 -4.3 L 298.56 -4.3 C 298 -4.3 297.61 -4.79 297.61 -5.3 L 297.61 -10.4 L 308.94 -10.4 L 308.94 -18.31 C 308.96 -22.71 306.88 -24.9 302.76 -24.9 L 297.09 -24.9 C 292.97 -24.9 290.89 -22.71 290.89 -18.31 Z M 297.61 -14.79 L 297.61 -19.31 C 297.61 -19.82 298.05 -20.29 298.56 -20.29 L 301.29 -20.29 C 301.86 -20.29 302.25 -19.82 302.25 -19.31 L 302.25 -14.79 Z" stroke-linecap="round" />
</g>
</g>
</g>
</svg>